<svg xmlns="http://www.w3.org/2000/svg" width="34" height="35" fill="none" viewBox="0 0 34 35">
  <path stroke="#023" stroke-linecap="round" stroke-linejoin="round" stroke-width="2" d="m4.25 17.254 2.833-2.875m0 0L17 4.314l9.917 10.065m-19.834 0v14.378c0 .382.15.747.415 1.017.266.27.626.421 1.002.421h4.25M26.917 14.38l2.833 2.875m-2.833-2.875v14.378c0 .382-.15.747-.415 1.017-.266.27-.626.421-1.002.421h-4.25m-8.5 0c.376 0 .736-.151 1.002-.421.265-.27.415-.635.415-1.017v-5.751c0-.381.149-.747.415-1.017.265-.27.626-.421 1.001-.421h2.834c.375 0 .736.151 1.001.421.266.27.415.636.415 1.017v5.751c0 .382.15.747.415 1.017.266.27.626.421 1.002.421m-8.5 0h8.5"/>
</svg>
