<svg xmlns="http://www.w3.org/2000/svg" width="34" height="35" fill="none" viewBox="0 0 34 35">
  <path stroke="#023" stroke-linecap="round" stroke-linejoin="round" stroke-width="2" d="M14.167 8.627H7.083c-.751 0-1.472.303-2.003.842a2.901 2.901 0 0 0-.83 2.034v12.94a2.9 2.9 0 0 0 .83 2.034 2.81 2.81 0 0 0 2.003.843h19.834a2.81 2.81 0 0 0 2.003-.843c.531-.54.83-1.27.83-2.033V11.503c0-.763-.299-1.494-.83-2.034a2.812 2.812 0 0 0-2.003-.842h-7.084m-5.666 0V7.19c0-.762.298-1.494.83-2.033A2.813 2.813 0 0 1 17 4.314c.751 0 1.472.303 2.003.842.532.54.83 1.27.83 2.033v1.438m-5.666 0c0 .763.298 1.494.83 2.034a2.81 2.81 0 0 0 2.003.842c.751 0 1.472-.303 2.003-.842.532-.54.83-1.271.83-2.034M12.75 20.13c.751 0 1.472-.303 2.004-.842a2.904 2.904 0 0 0 0-4.067 2.812 2.812 0 0 0-2.004-.842c-.751 0-1.472.303-2.004.842a2.903 2.903 0 0 0 0 4.067c.532.54 1.253.842 2.004.842Zm0 0c1.85 0 3.424 1.2 4.01 2.876m-4.01-2.876a4.21 4.21 0 0 0-2.455.791 4.309 4.309 0 0 0-1.554 2.085m12.509-7.19h4.25m-4.25 5.752h2.833"/>
</svg>
