<svg xmlns="http://www.w3.org/2000/svg" width="34" height="35" fill="none" viewBox="0 0 34 35">
  <path stroke="#023" stroke-linecap="round" stroke-linejoin="round" stroke-width="2" d="M19.373 6.207c-.604-2.525-4.142-2.525-4.746 0-.39 1.632-2.233 2.406-3.644 1.532-2.187-1.352-4.689 1.189-3.357 3.407a2.505 2.505 0 0 1-.497 3.174 2.43 2.43 0 0 1-1.013.526c-2.488.613-2.488 4.204 0 4.817.373.092.72.272 1.012.526.291.254.52.574.667.934a2.513 2.513 0 0 1-.17 2.238c-1.332 2.22 1.171 4.76 3.357 3.408a2.419 2.419 0 0 1 3.127.504c.25.297.428.65.518 1.029.604 2.524 4.142 2.524 4.746 0a2.475 2.475 0 0 1 1.438-1.705 2.41 2.41 0 0 1 2.206.173c2.187 1.352 4.689-1.189 3.357-3.408a2.504 2.504 0 0 1 .497-3.173 2.43 2.43 0 0 1 1.013-.526c2.488-.613 2.488-4.204 0-4.817a2.43 2.43 0 0 1-1.012-.526 2.477 2.477 0 0 1-.667-.934 2.513 2.513 0 0 1 .17-2.238c1.332-2.22-1.171-4.76-3.357-3.408a2.417 2.417 0 0 1-3.127-.505 2.493 2.493 0 0 1-.518-1.028Z"/>
  <path stroke="#023" stroke-linecap="round" stroke-linejoin="round" stroke-width="2" d="M20.005 20.305a4.347 4.347 0 0 0 1.245-3.05 4.347 4.347 0 0 0-1.245-3.05A4.219 4.219 0 0 0 17 12.94a4.219 4.219 0 0 0-3.005 1.263 4.347 4.347 0 0 0-1.245 3.05c0 1.144.448 2.242 1.245 3.05A4.219 4.219 0 0 0 17 21.569a4.219 4.219 0 0 0 3.005-1.263Z"/>
</svg>
